<svg xmlns="http://www.w3.org/2000/svg" viewBox="0 0 100 100">
  <defs>
    <linearGradient id="cow-bg" x1="0" y1="0" x2="0" y2="1">
      <stop offset="0%" stop-color="#1e3a5f"/>
      <stop offset="100%" stop-color="#0a1628"/>
    </linearGradient>
    <linearGradient id="cow-gold" x1="0" y1="0" x2="1" y2="1">
      <stop offset="0%" stop-color="#fcd34d"/>
      <stop offset="100%" stop-color="#d97706"/>
    </linearGradient>
  </defs>
  <rect width="100" height="100" rx="20" fill="url(#cow-bg)"/>
  <!-- Longhorn skull + horns (Cowtown / Fort Worth Stockyards) -->
  <path fill="url(#cow-gold)" d="
    M50,38 C61,38 68,45 67,55 C66,67 59,78 50,86 C41,78 34,67 33,55 C32,45 39,38 50,38 Z
    M64,42 C78,33 90,22 93,12 C92,28 76,46 60,54 Z
    M36,42 C22,33 10,22 7,12 C8,28 24,46 40,54 Z
  "/>
  <!-- GPS pin marking a parcel -->
  <circle cx="50" cy="58" r="12" fill="#ffffff"/>
  <circle cx="50" cy="58" r="5" fill="#0a1628"/>
  <polygon points="43,67 50,83 57,67" fill="#ffffff"/>
  <ellipse cx="50" cy="83" rx="7" ry="2.5" fill="#ffffff"/>
</svg>
